<svg width="14" height="12" viewBox="0 0 14 12" fill="none" xmlns="http://www.w3.org/2000/svg">
<path d="M7.00002 12C7.20074 11.9997 7.39674 11.9391 7.56252 11.8259C10.0185 10.1587 11.0819 9.01562 11.6685 8.30094C12.9185 6.7775 13.5169 5.21344 13.5 3.51969C13.4803 1.57875 11.9231 0 10.0288 0C8.65127 0 7.69721 0.775938 7.14158 1.42219C7.12398 1.44245 7.10223 1.4587 7.07781 1.46984C7.05339 1.48098 7.02686 1.48674 7.00002 1.48674C6.97318 1.48674 6.94665 1.48098 6.92223 1.46984C6.8978 1.4587 6.87606 1.44245 6.85846 1.42219C6.30283 0.775313 5.34877 0 3.97127 0C2.07689 0 0.519707 1.57875 0.500019 3.52C0.483144 5.21406 1.08221 6.77813 2.33158 8.30125C2.91814 9.01594 3.98158 10.1591 6.43752 11.8263C6.60334 11.9393 6.79933 11.9998 7.00002 12Z" fill="black"/>
</svg>